<mxfile host="app.diagrams.net" modified="2023-06-11T11:12:09.510Z" agent="Mozilla/5.0 (Windows NT 10.0; Win64; x64) AppleWebKit/537.36 (KHTML, like Gecko) Chrome/114.0.0.0 Safari/537.36" etag="HlQ6ed_XQuOSSYKbMXQj" version="21.3.5" type="github">
  <diagram id="C5RBs43oDa-KdzZeNtuy" name="Page-1">
    <mxGraphModel dx="1008" dy="627" grid="1" gridSize="10" guides="1" tooltips="1" connect="1" arrows="1" fold="1" page="1" pageScale="1" pageWidth="827" pageHeight="1169" math="0" shadow="0">
      <root>
        <mxCell id="WIyWlLk6GJQsqaUBKTNV-0" />
        <mxCell id="WIyWlLk6GJQsqaUBKTNV-1" parent="WIyWlLk6GJQsqaUBKTNV-0" />
        <mxCell id="WIyWlLk6GJQsqaUBKTNV-2" value="" style="rounded=0;html=1;jettySize=auto;orthogonalLoop=1;fontSize=11;endArrow=block;endFill=0;endSize=8;strokeWidth=1;shadow=0;labelBackgroundColor=none;edgeStyle=orthogonalEdgeStyle;" parent="WIyWlLk6GJQsqaUBKTNV-1" source="WIyWlLk6GJQsqaUBKTNV-3" target="WIyWlLk6GJQsqaUBKTNV-6" edge="1">
          <mxGeometry relative="1" as="geometry" />
        </mxCell>
        <mxCell id="WIyWlLk6GJQsqaUBKTNV-3" value="Lamp doesn&#39;t work" style="rounded=1;whiteSpace=wrap;html=1;fontSize=12;glass=0;strokeWidth=1;shadow=0;" parent="WIyWlLk6GJQsqaUBKTNV-1" vertex="1">
          <mxGeometry x="160" y="80" width="120" height="40" as="geometry" />
        </mxCell>
        <mxCell id="WIyWlLk6GJQsqaUBKTNV-4" value="Yes" style="rounded=0;html=1;jettySize=auto;orthogonalLoop=1;fontSize=11;endArrow=block;endFill=0;endSize=8;strokeWidth=1;shadow=0;labelBackgroundColor=none;edgeStyle=orthogonalEdgeStyle;" parent="WIyWlLk6GJQsqaUBKTNV-1" source="WIyWlLk6GJQsqaUBKTNV-6" target="WIyWlLk6GJQsqaUBKTNV-10" edge="1">
          <mxGeometry y="20" relative="1" as="geometry">
            <mxPoint as="offset" />
          </mxGeometry>
        </mxCell>
        <mxCell id="WIyWlLk6GJQsqaUBKTNV-5" value="No" style="edgeStyle=orthogonalEdgeStyle;rounded=0;html=1;jettySize=auto;orthogonalLoop=1;fontSize=11;endArrow=block;endFill=0;endSize=8;strokeWidth=1;shadow=0;labelBackgroundColor=none;" parent="WIyWlLk6GJQsqaUBKTNV-1" source="WIyWlLk6GJQsqaUBKTNV-6" target="WIyWlLk6GJQsqaUBKTNV-7" edge="1">
          <mxGeometry y="10" relative="1" as="geometry">
            <mxPoint as="offset" />
          </mxGeometry>
        </mxCell>
        <mxCell id="WIyWlLk6GJQsqaUBKTNV-6" value="Lamp&lt;br&gt;plugged in?" style="rhombus;whiteSpace=wrap;html=1;shadow=0;fontFamily=Helvetica;fontSize=12;align=center;strokeWidth=1;spacing=6;spacingTop=-4;" parent="WIyWlLk6GJQsqaUBKTNV-1" vertex="1">
          <mxGeometry x="170" y="170" width="100" height="80" as="geometry" />
        </mxCell>
        <mxCell id="WIyWlLk6GJQsqaUBKTNV-7" value="Plug in lamp" style="rounded=1;whiteSpace=wrap;html=1;fontSize=12;glass=0;strokeWidth=1;shadow=0;" parent="WIyWlLk6GJQsqaUBKTNV-1" vertex="1">
          <mxGeometry x="320" y="190" width="120" height="40" as="geometry" />
        </mxCell>
        <mxCell id="WIyWlLk6GJQsqaUBKTNV-8" value="No" style="rounded=0;html=1;jettySize=auto;orthogonalLoop=1;fontSize=11;endArrow=block;endFill=0;endSize=8;strokeWidth=1;shadow=0;labelBackgroundColor=none;edgeStyle=orthogonalEdgeStyle;" parent="WIyWlLk6GJQsqaUBKTNV-1" source="WIyWlLk6GJQsqaUBKTNV-10" target="WIyWlLk6GJQsqaUBKTNV-11" edge="1">
          <mxGeometry x="0.3333" y="20" relative="1" as="geometry">
            <mxPoint as="offset" />
          </mxGeometry>
        </mxCell>
        <mxCell id="WIyWlLk6GJQsqaUBKTNV-9" value="Yes" style="edgeStyle=orthogonalEdgeStyle;rounded=0;html=1;jettySize=auto;orthogonalLoop=1;fontSize=11;endArrow=block;endFill=0;endSize=8;strokeWidth=1;shadow=0;labelBackgroundColor=none;" parent="WIyWlLk6GJQsqaUBKTNV-1" source="WIyWlLk6GJQsqaUBKTNV-10" target="WIyWlLk6GJQsqaUBKTNV-12" edge="1">
          <mxGeometry y="10" relative="1" as="geometry">
            <mxPoint as="offset" />
          </mxGeometry>
        </mxCell>
        <mxCell id="WIyWlLk6GJQsqaUBKTNV-10" value="Bulb&lt;br&gt;burned out?" style="rhombus;whiteSpace=wrap;html=1;shadow=0;fontFamily=Helvetica;fontSize=12;align=center;strokeWidth=1;spacing=6;spacingTop=-4;" parent="WIyWlLk6GJQsqaUBKTNV-1" vertex="1">
          <mxGeometry x="170" y="290" width="100" height="80" as="geometry" />
        </mxCell>
        <mxCell id="WIyWlLk6GJQsqaUBKTNV-11" value="Repair Lamp" style="rounded=1;whiteSpace=wrap;html=1;fontSize=12;glass=0;strokeWidth=1;shadow=0;" parent="WIyWlLk6GJQsqaUBKTNV-1" vertex="1">
          <mxGeometry x="160" y="430" width="120" height="40" as="geometry" />
        </mxCell>
        <mxCell id="WIyWlLk6GJQsqaUBKTNV-12" value="Replace Bulb" style="rounded=1;whiteSpace=wrap;html=1;fontSize=12;glass=0;strokeWidth=1;shadow=0;" parent="WIyWlLk6GJQsqaUBKTNV-1" vertex="1">
          <mxGeometry x="320" y="310" width="120" height="40" as="geometry" />
        </mxCell>
        <mxCell id="-HxbZMImdyqd8_ke8Tiw-6" value="" style="endArrow=classic;html=1;rounded=0;exitX=1;exitY=0.5;exitDx=0;exitDy=0;" edge="1" parent="WIyWlLk6GJQsqaUBKTNV-1">
          <mxGeometry width="50" height="50" relative="1" as="geometry">
            <mxPoint x="134" y="593" as="sourcePoint" />
            <mxPoint x="170" y="593" as="targetPoint" />
          </mxGeometry>
        </mxCell>
        <mxCell id="-HxbZMImdyqd8_ke8Tiw-7" value="" style="ellipse;whiteSpace=wrap;html=1;aspect=fixed;" vertex="1" parent="WIyWlLk6GJQsqaUBKTNV-1">
          <mxGeometry x="170" y="550" width="80" height="80" as="geometry" />
        </mxCell>
        <mxCell id="-HxbZMImdyqd8_ke8Tiw-8" value="被测对象" style="text;html=1;strokeColor=none;fillColor=none;align=center;verticalAlign=middle;whiteSpace=wrap;rounded=0;" vertex="1" parent="WIyWlLk6GJQsqaUBKTNV-1">
          <mxGeometry x="180" y="578" width="60" height="30" as="geometry" />
        </mxCell>
        <mxCell id="-HxbZMImdyqd8_ke8Tiw-11" value="激励装置" style="whiteSpace=wrap;html=1;aspect=fixed;" vertex="1" parent="WIyWlLk6GJQsqaUBKTNV-1">
          <mxGeometry x="50" y="553" width="80" height="80" as="geometry" />
        </mxCell>
        <mxCell id="-HxbZMImdyqd8_ke8Tiw-12" value="传感器" style="rounded=0;whiteSpace=wrap;html=1;" vertex="1" parent="WIyWlLk6GJQsqaUBKTNV-1">
          <mxGeometry x="280" y="510" width="60" height="160" as="geometry" />
        </mxCell>
        <mxCell id="-HxbZMImdyqd8_ke8Tiw-13" value="" style="endArrow=classic;html=1;rounded=0;exitX=1;exitY=0.5;exitDx=0;exitDy=0;entryX=0;entryY=0.5;entryDx=0;entryDy=0;" edge="1" parent="WIyWlLk6GJQsqaUBKTNV-1" source="-HxbZMImdyqd8_ke8Tiw-7" target="-HxbZMImdyqd8_ke8Tiw-12">
          <mxGeometry width="50" height="50" relative="1" as="geometry">
            <mxPoint x="400" y="516" as="sourcePoint" />
            <mxPoint x="450" y="466" as="targetPoint" />
          </mxGeometry>
        </mxCell>
        <mxCell id="-HxbZMImdyqd8_ke8Tiw-20" value="信号调理" style="rounded=0;whiteSpace=wrap;html=1;" vertex="1" parent="WIyWlLk6GJQsqaUBKTNV-1">
          <mxGeometry x="380" y="510" width="60" height="160" as="geometry" />
        </mxCell>
        <mxCell id="-HxbZMImdyqd8_ke8Tiw-21" value="信号处理" style="rounded=0;whiteSpace=wrap;html=1;" vertex="1" parent="WIyWlLk6GJQsqaUBKTNV-1">
          <mxGeometry x="480" y="510" width="60" height="160" as="geometry" />
        </mxCell>
        <mxCell id="-HxbZMImdyqd8_ke8Tiw-22" value="显示记录" style="rounded=0;whiteSpace=wrap;html=1;" vertex="1" parent="WIyWlLk6GJQsqaUBKTNV-1">
          <mxGeometry x="580" y="510" width="60" height="160" as="geometry" />
        </mxCell>
        <mxCell id="-HxbZMImdyqd8_ke8Tiw-23" value="观察者" style="ellipse;whiteSpace=wrap;html=1;aspect=fixed;" vertex="1" parent="WIyWlLk6GJQsqaUBKTNV-1">
          <mxGeometry x="700" y="550" width="80" height="80" as="geometry" />
        </mxCell>
        <mxCell id="-HxbZMImdyqd8_ke8Tiw-24" value="" style="endArrow=classic;html=1;rounded=0;exitX=1;exitY=0.5;exitDx=0;exitDy=0;entryX=0;entryY=0.5;entryDx=0;entryDy=0;" edge="1" parent="WIyWlLk6GJQsqaUBKTNV-1" source="-HxbZMImdyqd8_ke8Tiw-12" target="-HxbZMImdyqd8_ke8Tiw-20">
          <mxGeometry width="50" height="50" relative="1" as="geometry">
            <mxPoint x="400" y="516" as="sourcePoint" />
            <mxPoint x="450" y="466" as="targetPoint" />
          </mxGeometry>
        </mxCell>
        <mxCell id="-HxbZMImdyqd8_ke8Tiw-25" value="" style="endArrow=classic;html=1;rounded=0;exitX=1;exitY=0.5;exitDx=0;exitDy=0;entryX=0;entryY=0.5;entryDx=0;entryDy=0;" edge="1" parent="WIyWlLk6GJQsqaUBKTNV-1" source="-HxbZMImdyqd8_ke8Tiw-20" target="-HxbZMImdyqd8_ke8Tiw-21">
          <mxGeometry width="50" height="50" relative="1" as="geometry">
            <mxPoint x="400" y="516" as="sourcePoint" />
            <mxPoint x="450" y="466" as="targetPoint" />
          </mxGeometry>
        </mxCell>
        <mxCell id="-HxbZMImdyqd8_ke8Tiw-26" value="" style="endArrow=classic;html=1;rounded=0;exitX=1;exitY=0.5;exitDx=0;exitDy=0;entryX=0;entryY=0.5;entryDx=0;entryDy=0;" edge="1" parent="WIyWlLk6GJQsqaUBKTNV-1" source="-HxbZMImdyqd8_ke8Tiw-21" target="-HxbZMImdyqd8_ke8Tiw-22">
          <mxGeometry width="50" height="50" relative="1" as="geometry">
            <mxPoint x="400" y="516" as="sourcePoint" />
            <mxPoint x="450" y="466" as="targetPoint" />
          </mxGeometry>
        </mxCell>
        <mxCell id="-HxbZMImdyqd8_ke8Tiw-28" value="" style="endArrow=classic;html=1;rounded=0;exitX=1;exitY=0.5;exitDx=0;exitDy=0;entryX=0;entryY=0.5;entryDx=0;entryDy=0;" edge="1" parent="WIyWlLk6GJQsqaUBKTNV-1" source="-HxbZMImdyqd8_ke8Tiw-22" target="-HxbZMImdyqd8_ke8Tiw-23">
          <mxGeometry width="50" height="50" relative="1" as="geometry">
            <mxPoint x="670" y="486" as="sourcePoint" />
            <mxPoint x="720" y="436" as="targetPoint" />
          </mxGeometry>
        </mxCell>
        <mxCell id="-HxbZMImdyqd8_ke8Tiw-29" value="" style="endArrow=classic;html=1;rounded=0;" edge="1" parent="WIyWlLk6GJQsqaUBKTNV-1" target="-HxbZMImdyqd8_ke8Tiw-30">
          <mxGeometry width="50" height="50" relative="1" as="geometry">
            <mxPoint x="560" y="596" as="sourcePoint" />
            <mxPoint x="680" y="866" as="targetPoint" />
            <Array as="points">
              <mxPoint x="560" y="736" />
            </Array>
          </mxGeometry>
        </mxCell>
        <mxCell id="-HxbZMImdyqd8_ke8Tiw-30" value="反馈控制" style="rounded=0;whiteSpace=wrap;html=1;" vertex="1" parent="WIyWlLk6GJQsqaUBKTNV-1">
          <mxGeometry x="330" y="706" width="120" height="60" as="geometry" />
        </mxCell>
        <mxCell id="-HxbZMImdyqd8_ke8Tiw-31" style="edgeStyle=orthogonalEdgeStyle;rounded=0;orthogonalLoop=1;jettySize=auto;html=1;exitX=0.5;exitY=1;exitDx=0;exitDy=0;" edge="1" parent="WIyWlLk6GJQsqaUBKTNV-1" source="-HxbZMImdyqd8_ke8Tiw-30" target="-HxbZMImdyqd8_ke8Tiw-30">
          <mxGeometry relative="1" as="geometry" />
        </mxCell>
        <mxCell id="-HxbZMImdyqd8_ke8Tiw-33" value="" style="endArrow=classic;html=1;rounded=0;exitX=0;exitY=0.5;exitDx=0;exitDy=0;entryX=0.5;entryY=1;entryDx=0;entryDy=0;" edge="1" parent="WIyWlLk6GJQsqaUBKTNV-1" source="-HxbZMImdyqd8_ke8Tiw-30" target="-HxbZMImdyqd8_ke8Tiw-7">
          <mxGeometry width="50" height="50" relative="1" as="geometry">
            <mxPoint x="400" y="816" as="sourcePoint" />
            <mxPoint x="450" y="766" as="targetPoint" />
            <Array as="points">
              <mxPoint x="210" y="736" />
            </Array>
          </mxGeometry>
        </mxCell>
        <mxCell id="-HxbZMImdyqd8_ke8Tiw-34" value="" style="endArrow=classic;html=1;rounded=0;exitX=1;exitY=0.5;exitDx=0;exitDy=0;" edge="1" parent="WIyWlLk6GJQsqaUBKTNV-1">
          <mxGeometry width="50" height="50" relative="1" as="geometry">
            <mxPoint x="134" y="923" as="sourcePoint" />
            <mxPoint x="170" y="923" as="targetPoint" />
          </mxGeometry>
        </mxCell>
        <mxCell id="-HxbZMImdyqd8_ke8Tiw-35" value="" style="ellipse;whiteSpace=wrap;html=1;aspect=fixed;" vertex="1" parent="WIyWlLk6GJQsqaUBKTNV-1">
          <mxGeometry x="170" y="880" width="80" height="80" as="geometry" />
        </mxCell>
        <mxCell id="-HxbZMImdyqd8_ke8Tiw-36" value="温度" style="text;html=1;strokeColor=none;fillColor=none;align=center;verticalAlign=middle;whiteSpace=wrap;rounded=0;" vertex="1" parent="WIyWlLk6GJQsqaUBKTNV-1">
          <mxGeometry x="180" y="908" width="60" height="30" as="geometry" />
        </mxCell>
        <mxCell id="-HxbZMImdyqd8_ke8Tiw-37" value="激励装置" style="whiteSpace=wrap;html=1;aspect=fixed;" vertex="1" parent="WIyWlLk6GJQsqaUBKTNV-1">
          <mxGeometry x="50" y="883" width="80" height="80" as="geometry" />
        </mxCell>
        <mxCell id="-HxbZMImdyqd8_ke8Tiw-38" value="NTC测温元件" style="rounded=0;whiteSpace=wrap;html=1;" vertex="1" parent="WIyWlLk6GJQsqaUBKTNV-1">
          <mxGeometry x="320" y="840" width="60" height="160" as="geometry" />
        </mxCell>
        <mxCell id="-HxbZMImdyqd8_ke8Tiw-39" value="" style="endArrow=classic;html=1;rounded=0;exitX=1;exitY=0.5;exitDx=0;exitDy=0;entryX=0;entryY=0.5;entryDx=0;entryDy=0;" edge="1" parent="WIyWlLk6GJQsqaUBKTNV-1" source="-HxbZMImdyqd8_ke8Tiw-35" target="-HxbZMImdyqd8_ke8Tiw-38">
          <mxGeometry width="50" height="50" relative="1" as="geometry">
            <mxPoint x="400" y="846" as="sourcePoint" />
            <mxPoint x="450" y="796" as="targetPoint" />
          </mxGeometry>
        </mxCell>
        <mxCell id="-HxbZMImdyqd8_ke8Tiw-41" value="A/D转化器，8位单片机" style="rounded=0;whiteSpace=wrap;html=1;" vertex="1" parent="WIyWlLk6GJQsqaUBKTNV-1">
          <mxGeometry x="440" y="840" width="60" height="160" as="geometry" />
        </mxCell>
        <mxCell id="-HxbZMImdyqd8_ke8Tiw-42" value="显示记录" style="rounded=0;whiteSpace=wrap;html=1;" vertex="1" parent="WIyWlLk6GJQsqaUBKTNV-1">
          <mxGeometry x="580" y="840" width="60" height="160" as="geometry" />
        </mxCell>
        <mxCell id="-HxbZMImdyqd8_ke8Tiw-43" value="观察者" style="ellipse;whiteSpace=wrap;html=1;aspect=fixed;" vertex="1" parent="WIyWlLk6GJQsqaUBKTNV-1">
          <mxGeometry x="700" y="880" width="80" height="80" as="geometry" />
        </mxCell>
        <mxCell id="-HxbZMImdyqd8_ke8Tiw-45" value="" style="endArrow=classic;html=1;rounded=0;exitX=1;exitY=0.5;exitDx=0;exitDy=0;entryX=0;entryY=0.5;entryDx=0;entryDy=0;" edge="1" parent="WIyWlLk6GJQsqaUBKTNV-1" source="-HxbZMImdyqd8_ke8Tiw-38" target="-HxbZMImdyqd8_ke8Tiw-41">
          <mxGeometry width="50" height="50" relative="1" as="geometry">
            <mxPoint x="440" y="920" as="sourcePoint" />
            <mxPoint x="450" y="796" as="targetPoint" />
          </mxGeometry>
        </mxCell>
        <mxCell id="-HxbZMImdyqd8_ke8Tiw-46" value="" style="endArrow=classic;html=1;rounded=0;exitX=1;exitY=0.5;exitDx=0;exitDy=0;entryX=0;entryY=0.5;entryDx=0;entryDy=0;" edge="1" parent="WIyWlLk6GJQsqaUBKTNV-1" source="-HxbZMImdyqd8_ke8Tiw-41" target="-HxbZMImdyqd8_ke8Tiw-42">
          <mxGeometry width="50" height="50" relative="1" as="geometry">
            <mxPoint x="400" y="846" as="sourcePoint" />
            <mxPoint x="450" y="796" as="targetPoint" />
          </mxGeometry>
        </mxCell>
        <mxCell id="-HxbZMImdyqd8_ke8Tiw-47" value="" style="endArrow=classic;html=1;rounded=0;exitX=1;exitY=0.5;exitDx=0;exitDy=0;entryX=0;entryY=0.5;entryDx=0;entryDy=0;" edge="1" parent="WIyWlLk6GJQsqaUBKTNV-1" source="-HxbZMImdyqd8_ke8Tiw-42" target="-HxbZMImdyqd8_ke8Tiw-43">
          <mxGeometry width="50" height="50" relative="1" as="geometry">
            <mxPoint x="670" y="816" as="sourcePoint" />
            <mxPoint x="720" y="766" as="targetPoint" />
          </mxGeometry>
        </mxCell>
        <mxCell id="-HxbZMImdyqd8_ke8Tiw-50" style="edgeStyle=orthogonalEdgeStyle;rounded=0;orthogonalLoop=1;jettySize=auto;html=1;exitX=0.5;exitY=1;exitDx=0;exitDy=0;" edge="1" parent="WIyWlLk6GJQsqaUBKTNV-1">
          <mxGeometry relative="1" as="geometry">
            <mxPoint x="390" y="1096" as="sourcePoint" />
            <mxPoint x="390" y="1096" as="targetPoint" />
          </mxGeometry>
        </mxCell>
        <mxCell id="-HxbZMImdyqd8_ke8Tiw-52" value="DHT11温度信号" style="text;html=1;strokeColor=none;fillColor=none;align=center;verticalAlign=middle;whiteSpace=wrap;rounded=0;" vertex="1" parent="WIyWlLk6GJQsqaUBKTNV-1">
          <mxGeometry x="354" y="1020" width="120" height="30" as="geometry" />
        </mxCell>
        <mxCell id="-HxbZMImdyqd8_ke8Tiw-53" value="" style="endArrow=classic;html=1;rounded=0;exitX=1;exitY=0.5;exitDx=0;exitDy=0;" edge="1" parent="WIyWlLk6GJQsqaUBKTNV-1">
          <mxGeometry width="50" height="50" relative="1" as="geometry">
            <mxPoint x="109" y="1213" as="sourcePoint" />
            <mxPoint x="145" y="1213" as="targetPoint" />
          </mxGeometry>
        </mxCell>
        <mxCell id="-HxbZMImdyqd8_ke8Tiw-54" value="" style="ellipse;whiteSpace=wrap;html=1;aspect=fixed;" vertex="1" parent="WIyWlLk6GJQsqaUBKTNV-1">
          <mxGeometry x="145" y="1170" width="80" height="80" as="geometry" />
        </mxCell>
        <mxCell id="-HxbZMImdyqd8_ke8Tiw-55" value="湿度" style="text;html=1;strokeColor=none;fillColor=none;align=center;verticalAlign=middle;whiteSpace=wrap;rounded=0;" vertex="1" parent="WIyWlLk6GJQsqaUBKTNV-1">
          <mxGeometry x="155" y="1198" width="60" height="30" as="geometry" />
        </mxCell>
        <mxCell id="-HxbZMImdyqd8_ke8Tiw-56" value="激励装置" style="whiteSpace=wrap;html=1;aspect=fixed;" vertex="1" parent="WIyWlLk6GJQsqaUBKTNV-1">
          <mxGeometry x="25" y="1173" width="80" height="80" as="geometry" />
        </mxCell>
        <mxCell id="-HxbZMImdyqd8_ke8Tiw-57" value="电容式湿度传感器" style="rounded=0;whiteSpace=wrap;html=1;" vertex="1" parent="WIyWlLk6GJQsqaUBKTNV-1">
          <mxGeometry x="295" y="1130" width="60" height="160" as="geometry" />
        </mxCell>
        <mxCell id="-HxbZMImdyqd8_ke8Tiw-58" value="" style="endArrow=classic;html=1;rounded=0;exitX=1;exitY=0.5;exitDx=0;exitDy=0;entryX=0;entryY=0.5;entryDx=0;entryDy=0;" edge="1" parent="WIyWlLk6GJQsqaUBKTNV-1" source="-HxbZMImdyqd8_ke8Tiw-54" target="-HxbZMImdyqd8_ke8Tiw-57">
          <mxGeometry width="50" height="50" relative="1" as="geometry">
            <mxPoint x="375" y="1136" as="sourcePoint" />
            <mxPoint x="425" y="1086" as="targetPoint" />
          </mxGeometry>
        </mxCell>
        <mxCell id="-HxbZMImdyqd8_ke8Tiw-59" value="A/D转化器，8位单片机" style="rounded=0;whiteSpace=wrap;html=1;" vertex="1" parent="WIyWlLk6GJQsqaUBKTNV-1">
          <mxGeometry x="415" y="1130" width="60" height="160" as="geometry" />
        </mxCell>
        <mxCell id="-HxbZMImdyqd8_ke8Tiw-60" value="显示记录" style="rounded=0;whiteSpace=wrap;html=1;" vertex="1" parent="WIyWlLk6GJQsqaUBKTNV-1">
          <mxGeometry x="555" y="1130" width="60" height="160" as="geometry" />
        </mxCell>
        <mxCell id="-HxbZMImdyqd8_ke8Tiw-61" value="观察者" style="ellipse;whiteSpace=wrap;html=1;aspect=fixed;" vertex="1" parent="WIyWlLk6GJQsqaUBKTNV-1">
          <mxGeometry x="675" y="1170" width="80" height="80" as="geometry" />
        </mxCell>
        <mxCell id="-HxbZMImdyqd8_ke8Tiw-62" value="" style="endArrow=classic;html=1;rounded=0;exitX=1;exitY=0.5;exitDx=0;exitDy=0;entryX=0;entryY=0.5;entryDx=0;entryDy=0;" edge="1" parent="WIyWlLk6GJQsqaUBKTNV-1" source="-HxbZMImdyqd8_ke8Tiw-57" target="-HxbZMImdyqd8_ke8Tiw-59">
          <mxGeometry width="50" height="50" relative="1" as="geometry">
            <mxPoint x="415" y="1210" as="sourcePoint" />
            <mxPoint x="425" y="1086" as="targetPoint" />
          </mxGeometry>
        </mxCell>
        <mxCell id="-HxbZMImdyqd8_ke8Tiw-63" value="" style="endArrow=classic;html=1;rounded=0;exitX=1;exitY=0.5;exitDx=0;exitDy=0;entryX=0;entryY=0.5;entryDx=0;entryDy=0;" edge="1" parent="WIyWlLk6GJQsqaUBKTNV-1" source="-HxbZMImdyqd8_ke8Tiw-59" target="-HxbZMImdyqd8_ke8Tiw-60">
          <mxGeometry width="50" height="50" relative="1" as="geometry">
            <mxPoint x="375" y="1136" as="sourcePoint" />
            <mxPoint x="425" y="1086" as="targetPoint" />
          </mxGeometry>
        </mxCell>
        <mxCell id="-HxbZMImdyqd8_ke8Tiw-64" value="" style="endArrow=classic;html=1;rounded=0;exitX=1;exitY=0.5;exitDx=0;exitDy=0;entryX=0;entryY=0.5;entryDx=0;entryDy=0;" edge="1" parent="WIyWlLk6GJQsqaUBKTNV-1" source="-HxbZMImdyqd8_ke8Tiw-60" target="-HxbZMImdyqd8_ke8Tiw-61">
          <mxGeometry width="50" height="50" relative="1" as="geometry">
            <mxPoint x="645" y="1106" as="sourcePoint" />
            <mxPoint x="695" y="1056" as="targetPoint" />
          </mxGeometry>
        </mxCell>
        <mxCell id="-HxbZMImdyqd8_ke8Tiw-65" value="DHT11湿度信号" style="text;html=1;strokeColor=none;fillColor=none;align=center;verticalAlign=middle;whiteSpace=wrap;rounded=0;" vertex="1" parent="WIyWlLk6GJQsqaUBKTNV-1">
          <mxGeometry x="329" y="1310" width="120" height="30" as="geometry" />
        </mxCell>
        <mxCell id="-HxbZMImdyqd8_ke8Tiw-66" style="edgeStyle=orthogonalEdgeStyle;rounded=0;orthogonalLoop=1;jettySize=auto;html=1;exitX=0.5;exitY=1;exitDx=0;exitDy=0;" edge="1" parent="WIyWlLk6GJQsqaUBKTNV-1">
          <mxGeometry relative="1" as="geometry">
            <mxPoint x="389" y="1440" as="sourcePoint" />
            <mxPoint x="389" y="1440" as="targetPoint" />
          </mxGeometry>
        </mxCell>
        <mxCell id="-HxbZMImdyqd8_ke8Tiw-67" value="" style="endArrow=classic;html=1;rounded=0;exitX=1;exitY=0.5;exitDx=0;exitDy=0;" edge="1" parent="WIyWlLk6GJQsqaUBKTNV-1">
          <mxGeometry width="50" height="50" relative="1" as="geometry">
            <mxPoint x="108" y="1557" as="sourcePoint" />
            <mxPoint x="144" y="1557" as="targetPoint" />
          </mxGeometry>
        </mxCell>
        <mxCell id="-HxbZMImdyqd8_ke8Tiw-68" value="" style="ellipse;whiteSpace=wrap;html=1;aspect=fixed;" vertex="1" parent="WIyWlLk6GJQsqaUBKTNV-1">
          <mxGeometry x="144" y="1514" width="80" height="80" as="geometry" />
        </mxCell>
        <mxCell id="-HxbZMImdyqd8_ke8Tiw-69" value="红外信号" style="text;html=1;strokeColor=none;fillColor=none;align=center;verticalAlign=middle;whiteSpace=wrap;rounded=0;" vertex="1" parent="WIyWlLk6GJQsqaUBKTNV-1">
          <mxGeometry x="154" y="1542" width="60" height="30" as="geometry" />
        </mxCell>
        <mxCell id="-HxbZMImdyqd8_ke8Tiw-70" value="激励装置" style="whiteSpace=wrap;html=1;aspect=fixed;" vertex="1" parent="WIyWlLk6GJQsqaUBKTNV-1">
          <mxGeometry x="24" y="1517" width="80" height="80" as="geometry" />
        </mxCell>
        <mxCell id="-HxbZMImdyqd8_ke8Tiw-71" value="双元红外传感器" style="rounded=0;whiteSpace=wrap;html=1;" vertex="1" parent="WIyWlLk6GJQsqaUBKTNV-1">
          <mxGeometry x="294" y="1474" width="60" height="160" as="geometry" />
        </mxCell>
        <mxCell id="-HxbZMImdyqd8_ke8Tiw-72" value="" style="endArrow=classic;html=1;rounded=0;exitX=1;exitY=0.5;exitDx=0;exitDy=0;entryX=0;entryY=0.5;entryDx=0;entryDy=0;" edge="1" parent="WIyWlLk6GJQsqaUBKTNV-1" source="-HxbZMImdyqd8_ke8Tiw-68" target="-HxbZMImdyqd8_ke8Tiw-71">
          <mxGeometry width="50" height="50" relative="1" as="geometry">
            <mxPoint x="374" y="1480" as="sourcePoint" />
            <mxPoint x="424" y="1430" as="targetPoint" />
          </mxGeometry>
        </mxCell>
        <mxCell id="-HxbZMImdyqd8_ke8Tiw-73" value="滤波、放大电路、比较器、触发电路" style="rounded=0;whiteSpace=wrap;html=1;" vertex="1" parent="WIyWlLk6GJQsqaUBKTNV-1">
          <mxGeometry x="380" y="1474" width="60" height="160" as="geometry" />
        </mxCell>
        <mxCell id="-HxbZMImdyqd8_ke8Tiw-74" value="显示记录" style="rounded=0;whiteSpace=wrap;html=1;" vertex="1" parent="WIyWlLk6GJQsqaUBKTNV-1">
          <mxGeometry x="554" y="1474" width="60" height="160" as="geometry" />
        </mxCell>
        <mxCell id="-HxbZMImdyqd8_ke8Tiw-75" value="观察者" style="ellipse;whiteSpace=wrap;html=1;aspect=fixed;" vertex="1" parent="WIyWlLk6GJQsqaUBKTNV-1">
          <mxGeometry x="674" y="1514" width="80" height="80" as="geometry" />
        </mxCell>
        <mxCell id="-HxbZMImdyqd8_ke8Tiw-76" value="" style="endArrow=classic;html=1;rounded=0;exitX=1;exitY=0.5;exitDx=0;exitDy=0;entryX=0;entryY=0.5;entryDx=0;entryDy=0;" edge="1" parent="WIyWlLk6GJQsqaUBKTNV-1" source="-HxbZMImdyqd8_ke8Tiw-71" target="-HxbZMImdyqd8_ke8Tiw-73">
          <mxGeometry width="50" height="50" relative="1" as="geometry">
            <mxPoint x="414" y="1554" as="sourcePoint" />
            <mxPoint x="424" y="1430" as="targetPoint" />
          </mxGeometry>
        </mxCell>
        <mxCell id="-HxbZMImdyqd8_ke8Tiw-78" value="" style="endArrow=classic;html=1;rounded=0;exitX=1;exitY=0.5;exitDx=0;exitDy=0;entryX=0;entryY=0.5;entryDx=0;entryDy=0;" edge="1" parent="WIyWlLk6GJQsqaUBKTNV-1" source="-HxbZMImdyqd8_ke8Tiw-74" target="-HxbZMImdyqd8_ke8Tiw-75">
          <mxGeometry width="50" height="50" relative="1" as="geometry">
            <mxPoint x="644" y="1450" as="sourcePoint" />
            <mxPoint x="694" y="1400" as="targetPoint" />
          </mxGeometry>
        </mxCell>
        <mxCell id="-HxbZMImdyqd8_ke8Tiw-79" value="HC-SR501人体红外感应模块" style="text;html=1;strokeColor=none;fillColor=none;align=center;verticalAlign=middle;whiteSpace=wrap;rounded=0;" vertex="1" parent="WIyWlLk6GJQsqaUBKTNV-1">
          <mxGeometry x="328" y="1654" width="172" height="30" as="geometry" />
        </mxCell>
        <mxCell id="-HxbZMImdyqd8_ke8Tiw-80" value="arduino读取高低电平信号，以数字信号进行输出。" style="rounded=0;whiteSpace=wrap;html=1;" vertex="1" parent="WIyWlLk6GJQsqaUBKTNV-1">
          <mxGeometry x="460" y="1474" width="60" height="160" as="geometry" />
        </mxCell>
        <mxCell id="-HxbZMImdyqd8_ke8Tiw-81" value="" style="endArrow=classic;html=1;rounded=0;exitX=1;exitY=0.5;exitDx=0;exitDy=0;entryX=0;entryY=0.5;entryDx=0;entryDy=0;" edge="1" parent="WIyWlLk6GJQsqaUBKTNV-1" source="-HxbZMImdyqd8_ke8Tiw-73" target="-HxbZMImdyqd8_ke8Tiw-80">
          <mxGeometry width="50" height="50" relative="1" as="geometry">
            <mxPoint x="390" y="1530" as="sourcePoint" />
            <mxPoint x="440" y="1480" as="targetPoint" />
          </mxGeometry>
        </mxCell>
        <mxCell id="-HxbZMImdyqd8_ke8Tiw-82" value="" style="endArrow=classic;html=1;rounded=0;exitX=1;exitY=0.5;exitDx=0;exitDy=0;entryX=0;entryY=0.5;entryDx=0;entryDy=0;" edge="1" parent="WIyWlLk6GJQsqaUBKTNV-1" source="-HxbZMImdyqd8_ke8Tiw-80" target="-HxbZMImdyqd8_ke8Tiw-74">
          <mxGeometry width="50" height="50" relative="1" as="geometry">
            <mxPoint x="390" y="1530" as="sourcePoint" />
            <mxPoint x="440" y="1480" as="targetPoint" />
          </mxGeometry>
        </mxCell>
      </root>
    </mxGraphModel>
  </diagram>
</mxfile>
